<?xml version="1.0" standalone="no"?>
<!DOCTYPE svg PUBLIC "-//W3C//DTD SVG 20010904//EN"
 "http://www.w3.org/TR/2001/REC-SVG-20010904/DTD/svg10.dtd">
<svg version="1.0" xmlns="http://www.w3.org/2000/svg"
 width="512.000000pt" height="512.000000pt" viewBox="0 0 512.000000 512.000000"
 preserveAspectRatio="xMidYMid meet">
<metadata>
Created by potrace 1.14, written by Peter Selinger 2001-2017
</metadata>
<g transform="translate(0.000000,512.000000) scale(0.100000,-0.100000)"
fill="#000000" stroke="none">
<path d="M2493 5028 c-38 -51 -149 -203 -248 -338 -98 -135 -215 -294 -259
-355 -45 -60 -145 -198 -221 -305 -77 -107 -144 -199 -148 -205 -27 -33 -325
-451 -438 -615 -330 -476 -413 -661 -498 -1108 -11 -55 -11 -368 -1 -424 5
-24 11 -68 15 -98 9 -79 51 -240 92 -350 241 -654 838 -1127 1533 -1213 95
-12 396 -15 460 -4 14 2 50 7 80 11 163 22 391 96 558 182 91 47 268 156 282
173 3 3 28 24 55 45 50 39 232 219 270 267 47 58 104 139 148 210 54 88 147
277 147 299 0 9 4 20 9 25 19 22 87 268 96 351 3 28 8 61 11 75 11 44 13 383
3 444 -62 378 -187 675 -432 1020 -23 33 -87 123 -142 200 -238 336 -1152
1600 -1193 1650 -4 6 -31 43 -59 83 l-51 73 -69 -93z"/>
</g>
</svg>
